<svg width="21" height="21" viewBox="0 0 21 21" fill="none" xmlns="http://www.w3.org/2000/svg">
<circle cx="10.5" cy="10.5" r="10.5" fill="white"/>
<path d="M7.63522 12.3626H6.01677C6.01118 12.3324 6.00699 12.296 6.00419 12.2533C6.0014 12.2107 6 12.1692 6 12.129C6 12.0939 6.0014 12.0537 6.00419 12.0085C6.00699 11.9633 6.01118 11.9256 6.01677 11.8955H9.83229C9.83788 11.9256 9.84207 11.9608 9.84486 12.001C9.84766 12.0411 9.84906 12.0813 9.84906 12.1215C9.84906 12.1567 9.84766 12.1981 9.84486 12.2458C9.84207 12.2935 9.83788 12.3324 9.83229 12.3626H8.21384V17.3122C8.1747 17.3172 8.12998 17.321 8.07966 17.3235C8.02935 17.326 7.97904 17.3273 7.92872 17.3273C7.87282 17.3273 7.81831 17.326 7.7652 17.3235C7.71209 17.321 7.66876 17.3172 7.63522 17.3122V12.3626Z" fill="#101820"/>
<path d="M11.7862 12.3626H10.1677C10.1621 12.3324 10.1579 12.296 10.1551 12.2533C10.1523 12.2107 10.1509 12.1692 10.1509 12.129C10.1509 12.0939 10.1523 12.0537 10.1551 12.0085C10.1579 11.9633 10.1621 11.9256 10.1677 11.8955H13.9832C13.9888 11.9256 13.993 11.9608 13.9958 12.001C13.9986 12.0411 14 12.0813 14 12.1215C14 12.1567 13.9986 12.1981 13.9958 12.2458C13.993 12.2935 13.9888 12.3324 13.9832 12.3626H12.3648V17.3122C12.3257 17.3172 12.2809 17.321 12.2306 17.3235C12.1803 17.326 12.13 17.3273 12.0797 17.3273C12.0238 17.3273 11.9693 17.326 11.9161 17.3235C11.863 17.321 11.8197 17.3172 11.7862 17.3122V12.3626Z" fill="#101820"/>
<path fill-rule="evenodd" clip-rule="evenodd" d="M10.588 7.00948C11.4615 7.00948 12.1809 6.41646 12.2742 5.654L12.2755 5.64528C12.2809 5.69971 12.2838 5.75481 12.2838 5.81056C12.2838 6.81057 11.3814 7.62119 10.2682 7.62119C9.15507 7.62119 8.25277 6.81057 8.25277 5.81056C8.25277 4.82997 9.12036 4.03138 10.2035 4.00066L10.2071 4C9.4536 4.15531 8.89161 4.76147 8.89161 5.48548C8.89161 6.32715 9.6511 7.00948 10.588 7.00948ZM12.4277 5.1321C12.4273 5.13171 12.4269 5.13132 12.4265 5.13094L12.4268 5.13021C12.4271 5.13084 12.4274 5.13147 12.4277 5.1321ZM7.53487 7.24702C7.41389 6.98284 7.34731 6.69172 7.34731 6.38746C7.34739 5.48561 7.93276 4.67108 8.78077 4.34074C8.27979 4.67105 7.96174 5.27922 7.96174 5.91546C7.96174 7.06398 8.99815 7.97963 10.2766 7.97963C11.5552 7.97963 12.5916 7.04997 12.5916 5.90146C12.5916 5.62935 12.5335 5.37025 12.4277 5.1321C12.9831 5.66574 13.3231 6.38287 13.3231 7.17106C13.3231 8.81984 11.8353 10.1572 10 10.1572C8.16475 10.1572 6.67693 8.82175 6.67693 7.17304C6.67693 6.67112 6.8148 6.20091 7.05826 5.78579L7.05848 5.78955C7.04642 5.87015 7.04017 5.95418 7.04017 6.03774C7.04017 6.49528 7.22663 6.98273 7.53487 7.24702ZM9.43588 6.03979C9.43305 6.03457 9.43025 6.02932 9.4275 6.02407L9.43272 6.03787C9.43377 6.03851 9.43483 6.03915 9.43588 6.03979ZM10.6904 6.74478C10.139 6.74478 9.66236 6.45694 9.43588 6.03979C9.70725 6.20381 10.034 6.31281 10.3855 6.31281C11.1755 6.31281 11.84 5.7942 12.0332 5.19982C12.0673 5.33169 12.0854 5.39747 12.0854 5.51547C12.0854 6.20751 11.4608 6.74478 10.6904 6.74478ZM12.0332 5.19982C12.0333 5.1997 12.0333 5.19957 12.0334 5.19944H12.0331C12.0332 5.19957 12.0332 5.1997 12.0332 5.19982Z" fill="#101820"/>
</svg>
